<mxfile host="app.diagrams.net" modified="2021-08-18T18:04:43.863Z" agent="5.0 (Macintosh; Intel Mac OS X 10_15_7) AppleWebKit/537.36 (KHTML, like Gecko) Chrome/92.0.4515.131 Safari/537.36" etag="Oh7_iDDCoQnDcEZteex2" version="14.9.5" type="github">
  <diagram id="C5RBs43oDa-KdzZeNtuy" name="Page-1">
    <mxGraphModel dx="1426" dy="1938" grid="1" gridSize="10" guides="1" tooltips="1" connect="1" arrows="1" fold="1" page="1" pageScale="1" pageWidth="827" pageHeight="1169" math="0" shadow="0">
      <root>
        <mxCell id="WIyWlLk6GJQsqaUBKTNV-0" />
        <mxCell id="WIyWlLk6GJQsqaUBKTNV-1" parent="WIyWlLk6GJQsqaUBKTNV-0" />
        <mxCell id="ecfSPsKeXDJVTArsUlKH-32" style="edgeStyle=orthogonalEdgeStyle;rounded=0;orthogonalLoop=1;jettySize=auto;html=1;" edge="1" parent="WIyWlLk6GJQsqaUBKTNV-1" source="ecfSPsKeXDJVTArsUlKH-10" target="ecfSPsKeXDJVTArsUlKH-31">
          <mxGeometry relative="1" as="geometry" />
        </mxCell>
        <mxCell id="ecfSPsKeXDJVTArsUlKH-10" value="UI" style="shape=process;whiteSpace=wrap;html=1;backgroundOutline=1;" vertex="1" parent="WIyWlLk6GJQsqaUBKTNV-1">
          <mxGeometry x="325" y="140" width="120" height="60" as="geometry" />
        </mxCell>
        <mxCell id="ecfSPsKeXDJVTArsUlKH-67" style="edgeStyle=orthogonalEdgeStyle;rounded=0;orthogonalLoop=1;jettySize=auto;html=1;entryX=0.07;entryY=0.4;entryDx=0;entryDy=0;entryPerimeter=0;" edge="1" parent="WIyWlLk6GJQsqaUBKTNV-1" source="ecfSPsKeXDJVTArsUlKH-17" target="ecfSPsKeXDJVTArsUlKH-19">
          <mxGeometry relative="1" as="geometry" />
        </mxCell>
        <mxCell id="ecfSPsKeXDJVTArsUlKH-17" value="Joe" style="shape=umlActor;verticalLabelPosition=bottom;verticalAlign=top;html=1;outlineConnect=0;" vertex="1" parent="WIyWlLk6GJQsqaUBKTNV-1">
          <mxGeometry x="140" y="-30" width="30" height="60" as="geometry" />
        </mxCell>
        <mxCell id="ecfSPsKeXDJVTArsUlKH-18" value="Staging DB" style="shape=cylinder3;whiteSpace=wrap;html=1;boundedLbl=1;backgroundOutline=1;size=15;" vertex="1" parent="WIyWlLk6GJQsqaUBKTNV-1">
          <mxGeometry x="530" y="275" width="60" height="80" as="geometry" />
        </mxCell>
        <mxCell id="ecfSPsKeXDJVTArsUlKH-20" style="edgeStyle=orthogonalEdgeStyle;rounded=0;orthogonalLoop=1;jettySize=auto;html=1;" edge="1" parent="WIyWlLk6GJQsqaUBKTNV-1" source="ecfSPsKeXDJVTArsUlKH-19" target="ecfSPsKeXDJVTArsUlKH-10">
          <mxGeometry relative="1" as="geometry" />
        </mxCell>
        <mxCell id="ecfSPsKeXDJVTArsUlKH-19" value="FlatFile Bulk &lt;br&gt;Upload&lt;br&gt;Departures / Optionals / Tours" style="ellipse;shape=cloud;whiteSpace=wrap;html=1;" vertex="1" parent="WIyWlLk6GJQsqaUBKTNV-1">
          <mxGeometry x="260" y="-60" width="250" height="160" as="geometry" />
        </mxCell>
        <mxCell id="ecfSPsKeXDJVTArsUlKH-27" style="edgeStyle=orthogonalEdgeStyle;rounded=0;orthogonalLoop=1;jettySize=auto;html=1;" edge="1" parent="WIyWlLk6GJQsqaUBKTNV-1" source="ecfSPsKeXDJVTArsUlKH-24" target="ecfSPsKeXDJVTArsUlKH-26">
          <mxGeometry relative="1" as="geometry" />
        </mxCell>
        <mxCell id="ecfSPsKeXDJVTArsUlKH-60" style="edgeStyle=orthogonalEdgeStyle;rounded=0;orthogonalLoop=1;jettySize=auto;html=1;" edge="1" parent="WIyWlLk6GJQsqaUBKTNV-1" source="ecfSPsKeXDJVTArsUlKH-24" target="ecfSPsKeXDJVTArsUlKH-59">
          <mxGeometry relative="1" as="geometry" />
        </mxCell>
        <mxCell id="ecfSPsKeXDJVTArsUlKH-24" value="Sync Job" style="ellipse;whiteSpace=wrap;html=1;aspect=fixed;" vertex="1" parent="WIyWlLk6GJQsqaUBKTNV-1">
          <mxGeometry x="340" y="460" width="90" height="90" as="geometry" />
        </mxCell>
        <mxCell id="ecfSPsKeXDJVTArsUlKH-25" value="Published, Desynced" style="text;html=1;strokeColor=none;fillColor=none;align=center;verticalAlign=middle;whiteSpace=wrap;rounded=0;" vertex="1" parent="WIyWlLk6GJQsqaUBKTNV-1">
          <mxGeometry x="380" y="360" width="140" height="120" as="geometry" />
        </mxCell>
        <mxCell id="ecfSPsKeXDJVTArsUlKH-26" value="JasDB" style="shape=cylinder3;whiteSpace=wrap;html=1;boundedLbl=1;backgroundOutline=1;size=15;" vertex="1" parent="WIyWlLk6GJQsqaUBKTNV-1">
          <mxGeometry x="160" y="465" width="60" height="80" as="geometry" />
        </mxCell>
        <mxCell id="ecfSPsKeXDJVTArsUlKH-33" style="edgeStyle=orthogonalEdgeStyle;rounded=0;orthogonalLoop=1;jettySize=auto;html=1;" edge="1" parent="WIyWlLk6GJQsqaUBKTNV-1" source="ecfSPsKeXDJVTArsUlKH-31" target="ecfSPsKeXDJVTArsUlKH-18">
          <mxGeometry relative="1" as="geometry">
            <mxPoint x="530" y="315" as="targetPoint" />
          </mxGeometry>
        </mxCell>
        <mxCell id="ecfSPsKeXDJVTArsUlKH-42" style="edgeStyle=orthogonalEdgeStyle;rounded=0;orthogonalLoop=1;jettySize=auto;html=1;" edge="1" parent="WIyWlLk6GJQsqaUBKTNV-1" source="ecfSPsKeXDJVTArsUlKH-31" target="ecfSPsKeXDJVTArsUlKH-24">
          <mxGeometry relative="1" as="geometry" />
        </mxCell>
        <mxCell id="ecfSPsKeXDJVTArsUlKH-31" value="Tour Service" style="ellipse;whiteSpace=wrap;html=1;aspect=fixed;" vertex="1" parent="WIyWlLk6GJQsqaUBKTNV-1">
          <mxGeometry x="340" y="270" width="90" height="90" as="geometry" />
        </mxCell>
        <mxCell id="ecfSPsKeXDJVTArsUlKH-39" value="Bulk Upload" style="text;html=1;strokeColor=none;fillColor=none;align=center;verticalAlign=middle;whiteSpace=wrap;rounded=0;" vertex="1" parent="WIyWlLk6GJQsqaUBKTNV-1">
          <mxGeometry x="460" y="330" width="40" height="20" as="geometry" />
        </mxCell>
        <mxCell id="ecfSPsKeXDJVTArsUlKH-59" value="Atlas Integrator" style="ellipse;whiteSpace=wrap;html=1;aspect=fixed;" vertex="1" parent="WIyWlLk6GJQsqaUBKTNV-1">
          <mxGeometry x="550" y="465" width="80" height="80" as="geometry" />
        </mxCell>
        <mxCell id="ecfSPsKeXDJVTArsUlKH-62" value="Write To Jasmine" style="text;html=1;strokeColor=none;fillColor=none;align=center;verticalAlign=middle;whiteSpace=wrap;rounded=0;" vertex="1" parent="WIyWlLk6GJQsqaUBKTNV-1">
          <mxGeometry x="270" y="510" width="40" height="20" as="geometry" />
        </mxCell>
        <mxCell id="ecfSPsKeXDJVTArsUlKH-63" value="Sync To Atlas" style="text;html=1;strokeColor=none;fillColor=none;align=center;verticalAlign=middle;whiteSpace=wrap;rounded=0;" vertex="1" parent="WIyWlLk6GJQsqaUBKTNV-1">
          <mxGeometry x="450" y="502.5" width="80" height="35" as="geometry" />
        </mxCell>
      </root>
    </mxGraphModel>
  </diagram>
</mxfile>
